<svg class="main-svg" xmlns="http://www.w3.org/2000/svg" xmlns:xlink="http://www.w3.org/1999/xlink" width="1000" height="750" style="" viewBox="0 0 1000 750"><rect x="0" y="0" width="1000" height="750" style="fill: rgb(255, 255, 255); fill-opacity: 1;"/><defs id="defs-f43065"><g class="clips"><clipPath id="clipf43065xyplot" class="plotclip"><rect width="840" height="610"/></clipPath><clipPath class="axesclip" id="clipf43065x"><rect x="80" y="0" width="840" height="750"/></clipPath><clipPath class="axesclip" id="clipf43065y"><rect x="0" y="60" width="1000" height="610"/></clipPath><clipPath class="axesclip" id="clipf43065xy"><rect x="80" y="60" width="840" height="610"/></clipPath></g><g class="gradients"/></defs><g class="bglayer"/><g class="layer-below"><g class="imagelayer"/><g class="shapelayer"/></g><g class="cartesianlayer"><g class="subplot xy"><g class="layer-subplot"><g class="shapelayer"/><g class="imagelayer"/></g><g class="gridlayer"><g class="x"/><g class="y"/></g><g class="zerolinelayer"/><path class="xlines-below"/><path class="ylines-below"/><g class="overlines-below"/><g class="xaxislayer-below"/><g class="yaxislayer-below"/><g class="overaxes-below"/><g class="plot" transform="translate(80, 60)" clip-path="url('#clipf43065xyplot')"><g class="scatterlayer mlayer"><g class="trace scatter trace1159e3" style="stroke-miterlimit: 2; opacity: 1;"><g class="fills"/><g class="errorbars"/><g class="lines"><path class="js-line" d="M58.88,562.63L203.33,515.78L347.78,515.78L492.22,562.63L636.67,562.63L781.12,562.63" style="vector-effect: non-scaling-stroke; fill: none; stroke: rgb(141, 211, 199); stroke-opacity: 1; stroke-width: 8px; opacity: 1;"/></g><g class="points"><path class="point" transform="translate(58.88,562.63)" d="M13.5,0A13.5,13.5 0 1,1 0,-13.5A13.5,13.5 0 0,1 13.5,0Z" style="opacity: 1; stroke-width: 0px; fill: rgb(141, 211, 199); fill-opacity: 1;"/><path class="point" transform="translate(203.33,515.78)" d="M13.5,0A13.5,13.5 0 1,1 0,-13.5A13.5,13.5 0 0,1 13.5,0Z" style="opacity: 1; stroke-width: 0px; fill: rgb(141, 211, 199); fill-opacity: 1;"/><path class="point" transform="translate(347.78,515.78)" d="M13.5,0A13.5,13.5 0 1,1 0,-13.5A13.5,13.5 0 0,1 13.5,0Z" style="opacity: 1; stroke-width: 0px; fill: rgb(141, 211, 199); fill-opacity: 1;"/><path class="point" transform="translate(492.22,562.63)" d="M13.5,0A13.5,13.5 0 1,1 0,-13.5A13.5,13.5 0 0,1 13.5,0Z" style="opacity: 1; stroke-width: 0px; fill: rgb(141, 211, 199); fill-opacity: 1;"/><path class="point" transform="translate(636.67,562.63)" d="M13.5,0A13.5,13.5 0 1,1 0,-13.5A13.5,13.5 0 0,1 13.5,0Z" style="opacity: 1; stroke-width: 0px; fill: rgb(141, 211, 199); fill-opacity: 1;"/><path class="point" transform="translate(781.12,562.63)" d="M13.5,0A13.5,13.5 0 1,1 0,-13.5A13.5,13.5 0 0,1 13.5,0Z" style="opacity: 1; stroke-width: 0px; fill: rgb(141, 211, 199); fill-opacity: 1;"/></g><g class="text"><g class="textpoint" transform="translate(0,3)"><text x="58.88" y="562.63" text-anchor="middle" style="font-family: Arial; font-size: 12px; fill: rgb(36, 36, 36); fill-opacity: 1; white-space: pre;">Jan</text></g><g class="textpoint" transform="translate(0,3)"><text x="203.33" y="515.78" text-anchor="middle" style="font-family: Arial; font-size: 12px; fill: rgb(36, 36, 36); fill-opacity: 1; white-space: pre;">Jan</text></g><g class="textpoint" transform="translate(0,3)"><text x="347.78" y="515.78" text-anchor="middle" style="font-family: Arial; font-size: 12px; fill: rgb(36, 36, 36); fill-opacity: 1; white-space: pre;">Jan</text></g><g class="textpoint" transform="translate(0,3)"><text x="492.22" y="562.63" text-anchor="middle" style="font-family: Arial; font-size: 12px; fill: rgb(36, 36, 36); fill-opacity: 1; white-space: pre;">Jan</text></g><g class="textpoint" transform="translate(0,3)"><text x="636.67" y="562.63" text-anchor="middle" style="font-family: Arial; font-size: 12px; fill: rgb(36, 36, 36); fill-opacity: 1; white-space: pre;">Jan</text></g><g class="textpoint" transform="translate(0,3)"><text x="781.12" y="562.63" text-anchor="middle" style="font-family: Arial; font-size: 12px; fill: rgb(36, 36, 36); fill-opacity: 1; white-space: pre;">Jan</text></g></g></g><g class="trace scatter tracef5ab88" style="stroke-miterlimit: 2; opacity: 1;"><g class="fills"/><g class="errorbars"/><g class="lines"><path class="js-line" d="M58.88,422.1L203.33,94.22L347.78,375.26L492.22,375.26L636.67,422.1L781.12,515.78" style="vector-effect: non-scaling-stroke; fill: none; stroke: rgb(255, 255, 179); stroke-opacity: 1; stroke-width: 8px; opacity: 1;"/></g><g class="points"><path class="point" transform="translate(58.88,422.1)" d="M13.5,0A13.5,13.5 0 1,1 0,-13.5A13.5,13.5 0 0,1 13.5,0Z" style="opacity: 1; stroke-width: 0px; fill: rgb(255, 255, 179); fill-opacity: 1;"/><path class="point" transform="translate(203.33,94.22)" d="M13.5,0A13.5,13.5 0 1,1 0,-13.5A13.5,13.5 0 0,1 13.5,0Z" style="opacity: 1; stroke-width: 0px; fill: rgb(255, 255, 179); fill-opacity: 1;"/><path class="point" transform="translate(347.78,375.26)" d="M13.5,0A13.5,13.5 0 1,1 0,-13.5A13.5,13.5 0 0,1 13.5,0Z" style="opacity: 1; stroke-width: 0px; fill: rgb(255, 255, 179); fill-opacity: 1;"/><path class="point" transform="translate(492.22,375.26)" d="M13.5,0A13.5,13.5 0 1,1 0,-13.5A13.5,13.5 0 0,1 13.5,0Z" style="opacity: 1; stroke-width: 0px; fill: rgb(255, 255, 179); fill-opacity: 1;"/><path class="point" transform="translate(636.67,422.1)" d="M13.5,0A13.5,13.5 0 1,1 0,-13.5A13.5,13.5 0 0,1 13.5,0Z" style="opacity: 1; stroke-width: 0px; fill: rgb(255, 255, 179); fill-opacity: 1;"/><path class="point" transform="translate(781.12,515.78)" d="M13.5,0A13.5,13.5 0 1,1 0,-13.5A13.5,13.5 0 0,1 13.5,0Z" style="opacity: 1; stroke-width: 0px; fill: rgb(255, 255, 179); fill-opacity: 1;"/></g><g class="text"><g class="textpoint" transform="translate(0,3)"><text x="58.88" y="422.1" text-anchor="middle" style="font-family: Arial; font-size: 12px; fill: rgb(36, 36, 36); fill-opacity: 1; white-space: pre;">Feb</text></g><g class="textpoint" transform="translate(0,3)"><text x="203.33" y="94.22" text-anchor="middle" style="font-family: Arial; font-size: 12px; fill: rgb(36, 36, 36); fill-opacity: 1; white-space: pre;">Feb</text></g><g class="textpoint" transform="translate(0,3)"><text x="347.78" y="375.26" text-anchor="middle" style="font-family: Arial; font-size: 12px; fill: rgb(36, 36, 36); fill-opacity: 1; white-space: pre;">Feb</text></g><g class="textpoint" transform="translate(0,3)"><text x="492.22" y="375.26" text-anchor="middle" style="font-family: Arial; font-size: 12px; fill: rgb(36, 36, 36); fill-opacity: 1; white-space: pre;">Feb</text></g><g class="textpoint" transform="translate(0,3)"><text x="636.67" y="422.1" text-anchor="middle" style="font-family: Arial; font-size: 12px; fill: rgb(36, 36, 36); fill-opacity: 1; white-space: pre;">Feb</text></g><g class="textpoint" transform="translate(0,3)"><text x="781.12" y="515.78" text-anchor="middle" style="font-family: Arial; font-size: 12px; fill: rgb(36, 36, 36); fill-opacity: 1; white-space: pre;">Feb</text></g></g></g><g class="trace scatter traced044f8" style="stroke-miterlimit: 2; opacity: 1;"><g class="fills"/><g class="errorbars"/><g class="lines"><path class="js-line" d="M58.88,187.9L203.33,141.06L347.78,187.9L492.22,94.22L636.67,47.38L781.12,141.06" style="vector-effect: non-scaling-stroke; fill: none; stroke: rgb(190, 186, 218); stroke-opacity: 1; stroke-width: 8px; opacity: 1;"/></g><g class="points"><path class="point" transform="translate(58.88,187.9)" d="M13.5,0A13.5,13.5 0 1,1 0,-13.5A13.5,13.5 0 0,1 13.5,0Z" style="opacity: 1; stroke-width: 0px; fill: rgb(190, 186, 218); fill-opacity: 1;"/><path class="point" transform="translate(203.33,141.06)" d="M13.5,0A13.5,13.5 0 1,1 0,-13.5A13.5,13.5 0 0,1 13.5,0Z" style="opacity: 1; stroke-width: 0px; fill: rgb(190, 186, 218); fill-opacity: 1;"/><path class="point" transform="translate(347.78,187.9)" d="M13.5,0A13.5,13.5 0 1,1 0,-13.5A13.5,13.5 0 0,1 13.5,0Z" style="opacity: 1; stroke-width: 0px; fill: rgb(190, 186, 218); fill-opacity: 1;"/><path class="point" transform="translate(492.22,94.22)" d="M13.5,0A13.5,13.5 0 1,1 0,-13.5A13.5,13.5 0 0,1 13.5,0Z" style="opacity: 1; stroke-width: 0px; fill: rgb(190, 186, 218); fill-opacity: 1;"/><path class="point" transform="translate(636.67,47.38)" d="M13.5,0A13.5,13.5 0 1,1 0,-13.5A13.5,13.5 0 0,1 13.5,0Z" style="opacity: 1; stroke-width: 0px; fill: rgb(190, 186, 218); fill-opacity: 1;"/><path class="point" transform="translate(781.12,141.06)" d="M13.5,0A13.5,13.5 0 1,1 0,-13.5A13.5,13.5 0 0,1 13.5,0Z" style="opacity: 1; stroke-width: 0px; fill: rgb(190, 186, 218); fill-opacity: 1;"/></g><g class="text"><g class="textpoint" transform="translate(0,3)"><text x="58.88" y="187.9" text-anchor="middle" style="font-family: Arial; font-size: 12px; fill: rgb(36, 36, 36); fill-opacity: 1; white-space: pre;">Mar</text></g><g class="textpoint" transform="translate(0,3)"><text x="203.33" y="141.06" text-anchor="middle" style="font-family: Arial; font-size: 12px; fill: rgb(36, 36, 36); fill-opacity: 1; white-space: pre;">Mar</text></g><g class="textpoint" transform="translate(0,3)"><text x="347.78" y="187.9" text-anchor="middle" style="font-family: Arial; font-size: 12px; fill: rgb(36, 36, 36); fill-opacity: 1; white-space: pre;">Mar</text></g><g class="textpoint" transform="translate(0,3)"><text x="492.22" y="94.22" text-anchor="middle" style="font-family: Arial; font-size: 12px; fill: rgb(36, 36, 36); fill-opacity: 1; white-space: pre;">Mar</text></g><g class="textpoint" transform="translate(0,3)"><text x="636.67" y="47.38" text-anchor="middle" style="font-family: Arial; font-size: 12px; fill: rgb(36, 36, 36); fill-opacity: 1; white-space: pre;">Mar</text></g><g class="textpoint" transform="translate(0,3)"><text x="781.12" y="141.06" text-anchor="middle" style="font-family: Arial; font-size: 12px; fill: rgb(36, 36, 36); fill-opacity: 1; white-space: pre;">Mar</text></g></g></g><g class="trace scatter trace4dec78" style="stroke-miterlimit: 2; opacity: 1;"><g class="fills"/><g class="errorbars"/><g class="lines"><path class="js-line" d="M58.88,328.42L203.33,47.38L347.78,281.58L492.22,187.9L636.67,281.58L781.12,375.26" style="vector-effect: non-scaling-stroke; fill: none; stroke: rgb(251, 128, 114); stroke-opacity: 1; stroke-width: 8px; opacity: 1;"/></g><g class="points"><path class="point" transform="translate(58.88,328.42)" d="M13.5,0A13.5,13.5 0 1,1 0,-13.5A13.5,13.5 0 0,1 13.5,0Z" style="opacity: 1; stroke-width: 0px; fill: rgb(251, 128, 114); fill-opacity: 1;"/><path class="point" transform="translate(203.33,47.38)" d="M13.5,0A13.5,13.5 0 1,1 0,-13.5A13.5,13.5 0 0,1 13.5,0Z" style="opacity: 1; stroke-width: 0px; fill: rgb(251, 128, 114); fill-opacity: 1;"/><path class="point" transform="translate(347.78,281.58)" d="M13.5,0A13.5,13.5 0 1,1 0,-13.5A13.5,13.5 0 0,1 13.5,0Z" style="opacity: 1; stroke-width: 0px; fill: rgb(251, 128, 114); fill-opacity: 1;"/><path class="point" transform="translate(492.22,187.9)" d="M13.5,0A13.5,13.5 0 1,1 0,-13.5A13.5,13.5 0 0,1 13.5,0Z" style="opacity: 1; stroke-width: 0px; fill: rgb(251, 128, 114); fill-opacity: 1;"/><path class="point" transform="translate(636.67,281.58)" d="M13.5,0A13.5,13.5 0 1,1 0,-13.5A13.5,13.5 0 0,1 13.5,0Z" style="opacity: 1; stroke-width: 0px; fill: rgb(251, 128, 114); fill-opacity: 1;"/><path class="point" transform="translate(781.12,375.26)" d="M13.5,0A13.5,13.5 0 1,1 0,-13.5A13.5,13.5 0 0,1 13.5,0Z" style="opacity: 1; stroke-width: 0px; fill: rgb(251, 128, 114); fill-opacity: 1;"/></g><g class="text"><g class="textpoint" transform="translate(0,3)"><text x="58.88" y="328.42" text-anchor="middle" style="font-family: Arial; font-size: 12px; fill: rgb(36, 36, 36); fill-opacity: 1; white-space: pre;">Apr</text></g><g class="textpoint" transform="translate(0,3)"><text x="203.33" y="47.38" text-anchor="middle" style="font-family: Arial; font-size: 12px; fill: rgb(36, 36, 36); fill-opacity: 1; white-space: pre;">Apr</text></g><g class="textpoint" transform="translate(0,3)"><text x="347.78" y="281.58" text-anchor="middle" style="font-family: Arial; font-size: 12px; fill: rgb(36, 36, 36); fill-opacity: 1; white-space: pre;">Apr</text></g><g class="textpoint" transform="translate(0,3)"><text x="492.22" y="187.9" text-anchor="middle" style="font-family: Arial; font-size: 12px; fill: rgb(36, 36, 36); fill-opacity: 1; white-space: pre;">Apr</text></g><g class="textpoint" transform="translate(0,3)"><text x="636.67" y="281.58" text-anchor="middle" style="font-family: Arial; font-size: 12px; fill: rgb(36, 36, 36); fill-opacity: 1; white-space: pre;">Apr</text></g><g class="textpoint" transform="translate(0,3)"><text x="781.12" y="375.26" text-anchor="middle" style="font-family: Arial; font-size: 12px; fill: rgb(36, 36, 36); fill-opacity: 1; white-space: pre;">Apr</text></g></g></g><g class="trace scatter traceece6af" style="stroke-miterlimit: 2; opacity: 1;"><g class="fills"/><g class="errorbars"/><g class="lines"><path class="js-line" d="M58.88,94.22L203.33,328.42L347.78,47.38L492.22,422.1L636.67,94.22L781.12,187.9" style="vector-effect: non-scaling-stroke; fill: none; stroke: rgb(128, 177, 211); stroke-opacity: 1; stroke-width: 8px; opacity: 1;"/></g><g class="points"><path class="point" transform="translate(58.88,94.22)" d="M13.5,0A13.5,13.5 0 1,1 0,-13.5A13.5,13.5 0 0,1 13.5,0Z" style="opacity: 1; stroke-width: 0px; fill: rgb(128, 177, 211); fill-opacity: 1;"/><path class="point" transform="translate(203.33,328.42)" d="M13.5,0A13.5,13.5 0 1,1 0,-13.5A13.5,13.5 0 0,1 13.5,0Z" style="opacity: 1; stroke-width: 0px; fill: rgb(128, 177, 211); fill-opacity: 1;"/><path class="point" transform="translate(347.78,47.38)" d="M13.5,0A13.5,13.5 0 1,1 0,-13.5A13.5,13.5 0 0,1 13.5,0Z" style="opacity: 1; stroke-width: 0px; fill: rgb(128, 177, 211); fill-opacity: 1;"/><path class="point" transform="translate(492.22,422.1)" d="M13.5,0A13.5,13.5 0 1,1 0,-13.5A13.5,13.5 0 0,1 13.5,0Z" style="opacity: 1; stroke-width: 0px; fill: rgb(128, 177, 211); fill-opacity: 1;"/><path class="point" transform="translate(636.67,94.22)" d="M13.5,0A13.5,13.5 0 1,1 0,-13.5A13.5,13.5 0 0,1 13.5,0Z" style="opacity: 1; stroke-width: 0px; fill: rgb(128, 177, 211); fill-opacity: 1;"/><path class="point" transform="translate(781.12,187.9)" d="M13.5,0A13.5,13.5 0 1,1 0,-13.5A13.5,13.5 0 0,1 13.5,0Z" style="opacity: 1; stroke-width: 0px; fill: rgb(128, 177, 211); fill-opacity: 1;"/></g><g class="text"><g class="textpoint" transform="translate(0,3)"><text x="58.88" y="94.22" text-anchor="middle" style="font-family: Arial; font-size: 12px; fill: rgb(36, 36, 36); fill-opacity: 1; white-space: pre;">May</text></g><g class="textpoint" transform="translate(0,3)"><text x="203.33" y="328.42" text-anchor="middle" style="font-family: Arial; font-size: 12px; fill: rgb(36, 36, 36); fill-opacity: 1; white-space: pre;">May</text></g><g class="textpoint" transform="translate(0,3)"><text x="347.78" y="47.38" text-anchor="middle" style="font-family: Arial; font-size: 12px; fill: rgb(36, 36, 36); fill-opacity: 1; white-space: pre;">May</text></g><g class="textpoint" transform="translate(0,3)"><text x="492.22" y="422.1" text-anchor="middle" style="font-family: Arial; font-size: 12px; fill: rgb(36, 36, 36); fill-opacity: 1; white-space: pre;">May</text></g><g class="textpoint" transform="translate(0,3)"><text x="636.67" y="94.22" text-anchor="middle" style="font-family: Arial; font-size: 12px; fill: rgb(36, 36, 36); fill-opacity: 1; white-space: pre;">May</text></g><g class="textpoint" transform="translate(0,3)"><text x="781.12" y="187.9" text-anchor="middle" style="font-family: Arial; font-size: 12px; fill: rgb(36, 36, 36); fill-opacity: 1; white-space: pre;">May</text></g></g></g><g class="trace scatter tracee36628" style="stroke-miterlimit: 2; opacity: 1;"><g class="fills"/><g class="errorbars"/><g class="lines"><path class="js-line" d="M58.88,375.26L203.33,187.9L347.78,328.42L492.22,328.42L636.67,375.26L781.12,234.74" style="vector-effect: non-scaling-stroke; fill: none; stroke: rgb(253, 180, 98); stroke-opacity: 1; stroke-width: 8px; opacity: 1;"/></g><g class="points"><path class="point" transform="translate(58.88,375.26)" d="M13.5,0A13.5,13.5 0 1,1 0,-13.5A13.5,13.5 0 0,1 13.5,0Z" style="opacity: 1; stroke-width: 0px; fill: rgb(253, 180, 98); fill-opacity: 1;"/><path class="point" transform="translate(203.33,187.9)" d="M13.5,0A13.5,13.5 0 1,1 0,-13.5A13.5,13.5 0 0,1 13.5,0Z" style="opacity: 1; stroke-width: 0px; fill: rgb(253, 180, 98); fill-opacity: 1;"/><path class="point" transform="translate(347.78,328.42)" d="M13.5,0A13.5,13.5 0 1,1 0,-13.5A13.5,13.5 0 0,1 13.5,0Z" style="opacity: 1; stroke-width: 0px; fill: rgb(253, 180, 98); fill-opacity: 1;"/><path class="point" transform="translate(492.22,328.42)" d="M13.5,0A13.5,13.5 0 1,1 0,-13.5A13.5,13.5 0 0,1 13.5,0Z" style="opacity: 1; stroke-width: 0px; fill: rgb(253, 180, 98); fill-opacity: 1;"/><path class="point" transform="translate(636.67,375.26)" d="M13.5,0A13.5,13.5 0 1,1 0,-13.5A13.5,13.5 0 0,1 13.5,0Z" style="opacity: 1; stroke-width: 0px; fill: rgb(253, 180, 98); fill-opacity: 1;"/><path class="point" transform="translate(781.12,234.74)" d="M13.5,0A13.5,13.5 0 1,1 0,-13.5A13.5,13.5 0 0,1 13.5,0Z" style="opacity: 1; stroke-width: 0px; fill: rgb(253, 180, 98); fill-opacity: 1;"/></g><g class="text"><g class="textpoint" transform="translate(0,3)"><text x="58.88" y="375.26" text-anchor="middle" style="font-family: Arial; font-size: 12px; fill: rgb(36, 36, 36); fill-opacity: 1; white-space: pre;">Jun</text></g><g class="textpoint" transform="translate(0,3)"><text x="203.33" y="187.9" text-anchor="middle" style="font-family: Arial; font-size: 12px; fill: rgb(36, 36, 36); fill-opacity: 1; white-space: pre;">Jun</text></g><g class="textpoint" transform="translate(0,3)"><text x="347.78" y="328.42" text-anchor="middle" style="font-family: Arial; font-size: 12px; fill: rgb(36, 36, 36); fill-opacity: 1; white-space: pre;">Jun</text></g><g class="textpoint" transform="translate(0,3)"><text x="492.22" y="328.42" text-anchor="middle" style="font-family: Arial; font-size: 12px; fill: rgb(36, 36, 36); fill-opacity: 1; white-space: pre;">Jun</text></g><g class="textpoint" transform="translate(0,3)"><text x="636.67" y="375.26" text-anchor="middle" style="font-family: Arial; font-size: 12px; fill: rgb(36, 36, 36); fill-opacity: 1; white-space: pre;">Jun</text></g><g class="textpoint" transform="translate(0,3)"><text x="781.12" y="234.74" text-anchor="middle" style="font-family: Arial; font-size: 12px; fill: rgb(36, 36, 36); fill-opacity: 1; white-space: pre;">Jun</text></g></g></g><g class="trace scatter trace310a83" style="stroke-miterlimit: 2; opacity: 1;"><g class="fills"/><g class="errorbars"/><g class="lines"><path class="js-line" d="M58.88,234.74L203.33,281.58L347.78,234.74L492.22,234.74L636.67,515.78L781.12,328.42" style="vector-effect: non-scaling-stroke; fill: none; stroke: rgb(179, 222, 105); stroke-opacity: 1; stroke-width: 8px; opacity: 1;"/></g><g class="points"><path class="point" transform="translate(58.88,234.74)" d="M13.5,0A13.5,13.5 0 1,1 0,-13.5A13.5,13.5 0 0,1 13.5,0Z" style="opacity: 1; stroke-width: 0px; fill: rgb(179, 222, 105); fill-opacity: 1;"/><path class="point" transform="translate(203.33,281.58)" d="M13.5,0A13.5,13.5 0 1,1 0,-13.5A13.5,13.5 0 0,1 13.5,0Z" style="opacity: 1; stroke-width: 0px; fill: rgb(179, 222, 105); fill-opacity: 1;"/><path class="point" transform="translate(347.78,234.74)" d="M13.5,0A13.5,13.5 0 1,1 0,-13.5A13.5,13.5 0 0,1 13.5,0Z" style="opacity: 1; stroke-width: 0px; fill: rgb(179, 222, 105); fill-opacity: 1;"/><path class="point" transform="translate(492.22,234.74)" d="M13.5,0A13.5,13.5 0 1,1 0,-13.5A13.5,13.5 0 0,1 13.5,0Z" style="opacity: 1; stroke-width: 0px; fill: rgb(179, 222, 105); fill-opacity: 1;"/><path class="point" transform="translate(636.67,515.78)" d="M13.5,0A13.5,13.5 0 1,1 0,-13.5A13.5,13.5 0 0,1 13.5,0Z" style="opacity: 1; stroke-width: 0px; fill: rgb(179, 222, 105); fill-opacity: 1;"/><path class="point" transform="translate(781.12,328.42)" d="M13.5,0A13.5,13.5 0 1,1 0,-13.5A13.5,13.5 0 0,1 13.5,0Z" style="opacity: 1; stroke-width: 0px; fill: rgb(179, 222, 105); fill-opacity: 1;"/></g><g class="text"><g class="textpoint" transform="translate(0,3)"><text x="58.88" y="234.74" text-anchor="middle" style="font-family: Arial; font-size: 12px; fill: rgb(36, 36, 36); fill-opacity: 1; white-space: pre;">Jul</text></g><g class="textpoint" transform="translate(0,3)"><text x="203.33" y="281.58" text-anchor="middle" style="font-family: Arial; font-size: 12px; fill: rgb(36, 36, 36); fill-opacity: 1; white-space: pre;">Jul</text></g><g class="textpoint" transform="translate(0,3)"><text x="347.78" y="234.74" text-anchor="middle" style="font-family: Arial; font-size: 12px; fill: rgb(36, 36, 36); fill-opacity: 1; white-space: pre;">Jul</text></g><g class="textpoint" transform="translate(0,3)"><text x="492.22" y="234.74" text-anchor="middle" style="font-family: Arial; font-size: 12px; fill: rgb(36, 36, 36); fill-opacity: 1; white-space: pre;">Jul</text></g><g class="textpoint" transform="translate(0,3)"><text x="636.67" y="515.78" text-anchor="middle" style="font-family: Arial; font-size: 12px; fill: rgb(36, 36, 36); fill-opacity: 1; white-space: pre;">Jul</text></g><g class="textpoint" transform="translate(0,3)"><text x="781.12" y="328.42" text-anchor="middle" style="font-family: Arial; font-size: 12px; fill: rgb(36, 36, 36); fill-opacity: 1; white-space: pre;">Jul</text></g></g></g><g class="trace scatter trace57b726" style="stroke-miterlimit: 2; opacity: 1;"><g class="fills"/><g class="errorbars"/><g class="lines"><path class="js-line" d="M58.88,141.06L203.33,422.1L347.78,141.06L492.22,141.06L636.67,187.9L781.12,468.94" style="vector-effect: non-scaling-stroke; fill: none; stroke: rgb(252, 205, 229); stroke-opacity: 1; stroke-width: 8px; opacity: 1;"/></g><g class="points"><path class="point" transform="translate(58.88,141.06)" d="M13.5,0A13.5,13.5 0 1,1 0,-13.5A13.5,13.5 0 0,1 13.5,0Z" style="opacity: 1; stroke-width: 0px; fill: rgb(252, 205, 229); fill-opacity: 1;"/><path class="point" transform="translate(203.33,422.1)" d="M13.5,0A13.5,13.5 0 1,1 0,-13.5A13.5,13.5 0 0,1 13.5,0Z" style="opacity: 1; stroke-width: 0px; fill: rgb(252, 205, 229); fill-opacity: 1;"/><path class="point" transform="translate(347.78,141.06)" d="M13.5,0A13.5,13.5 0 1,1 0,-13.5A13.5,13.5 0 0,1 13.5,0Z" style="opacity: 1; stroke-width: 0px; fill: rgb(252, 205, 229); fill-opacity: 1;"/><path class="point" transform="translate(492.22,141.06)" d="M13.5,0A13.5,13.5 0 1,1 0,-13.5A13.5,13.5 0 0,1 13.5,0Z" style="opacity: 1; stroke-width: 0px; fill: rgb(252, 205, 229); fill-opacity: 1;"/><path class="point" transform="translate(636.67,187.9)" d="M13.5,0A13.5,13.5 0 1,1 0,-13.5A13.5,13.5 0 0,1 13.5,0Z" style="opacity: 1; stroke-width: 0px; fill: rgb(252, 205, 229); fill-opacity: 1;"/><path class="point" transform="translate(781.12,468.94)" d="M13.5,0A13.5,13.5 0 1,1 0,-13.5A13.5,13.5 0 0,1 13.5,0Z" style="opacity: 1; stroke-width: 0px; fill: rgb(252, 205, 229); fill-opacity: 1;"/></g><g class="text"><g class="textpoint" transform="translate(0,3)"><text x="58.88" y="141.06" text-anchor="middle" style="font-family: Arial; font-size: 12px; fill: rgb(36, 36, 36); fill-opacity: 1; white-space: pre;">Aug</text></g><g class="textpoint" transform="translate(0,3)"><text x="203.33" y="422.1" text-anchor="middle" style="font-family: Arial; font-size: 12px; fill: rgb(36, 36, 36); fill-opacity: 1; white-space: pre;">Aug</text></g><g class="textpoint" transform="translate(0,3)"><text x="347.78" y="141.06" text-anchor="middle" style="font-family: Arial; font-size: 12px; fill: rgb(36, 36, 36); fill-opacity: 1; white-space: pre;">Aug</text></g><g class="textpoint" transform="translate(0,3)"><text x="492.22" y="141.06" text-anchor="middle" style="font-family: Arial; font-size: 12px; fill: rgb(36, 36, 36); fill-opacity: 1; white-space: pre;">Aug</text></g><g class="textpoint" transform="translate(0,3)"><text x="636.67" y="187.9" text-anchor="middle" style="font-family: Arial; font-size: 12px; fill: rgb(36, 36, 36); fill-opacity: 1; white-space: pre;">Aug</text></g><g class="textpoint" transform="translate(0,3)"><text x="781.12" y="468.94" text-anchor="middle" style="font-family: Arial; font-size: 12px; fill: rgb(36, 36, 36); fill-opacity: 1; white-space: pre;">Aug</text></g></g></g><g class="trace scatter trace2e36b8" style="stroke-miterlimit: 2; opacity: 1;"><g class="fills"/><g class="errorbars"/><g class="lines"><path class="js-line" d="M58.88,468.94L203.33,375.26L347.78,422.1L492.22,515.78L636.67,468.94L781.12,422.1" style="vector-effect: non-scaling-stroke; fill: none; stroke: rgb(217, 217, 217); stroke-opacity: 1; stroke-width: 8px; opacity: 1;"/></g><g class="points"><path class="point" transform="translate(58.88,468.94)" d="M13.5,0A13.5,13.5 0 1,1 0,-13.5A13.5,13.5 0 0,1 13.5,0Z" style="opacity: 1; stroke-width: 0px; fill: rgb(217, 217, 217); fill-opacity: 1;"/><path class="point" transform="translate(203.33,375.26)" d="M13.5,0A13.5,13.5 0 1,1 0,-13.5A13.5,13.5 0 0,1 13.5,0Z" style="opacity: 1; stroke-width: 0px; fill: rgb(217, 217, 217); fill-opacity: 1;"/><path class="point" transform="translate(347.78,422.1)" d="M13.5,0A13.5,13.5 0 1,1 0,-13.5A13.5,13.5 0 0,1 13.5,0Z" style="opacity: 1; stroke-width: 0px; fill: rgb(217, 217, 217); fill-opacity: 1;"/><path class="point" transform="translate(492.22,515.78)" d="M13.5,0A13.5,13.5 0 1,1 0,-13.5A13.5,13.5 0 0,1 13.5,0Z" style="opacity: 1; stroke-width: 0px; fill: rgb(217, 217, 217); fill-opacity: 1;"/><path class="point" transform="translate(636.67,468.94)" d="M13.5,0A13.5,13.5 0 1,1 0,-13.5A13.5,13.5 0 0,1 13.5,0Z" style="opacity: 1; stroke-width: 0px; fill: rgb(217, 217, 217); fill-opacity: 1;"/><path class="point" transform="translate(781.12,422.1)" d="M13.5,0A13.5,13.5 0 1,1 0,-13.5A13.5,13.5 0 0,1 13.5,0Z" style="opacity: 1; stroke-width: 0px; fill: rgb(217, 217, 217); fill-opacity: 1;"/></g><g class="text"><g class="textpoint" transform="translate(0,3)"><text x="58.88" y="468.94" text-anchor="middle" style="font-family: Arial; font-size: 12px; fill: rgb(36, 36, 36); fill-opacity: 1; white-space: pre;">Sep</text></g><g class="textpoint" transform="translate(0,3)"><text x="203.33" y="375.26" text-anchor="middle" style="font-family: Arial; font-size: 12px; fill: rgb(36, 36, 36); fill-opacity: 1; white-space: pre;">Sep</text></g><g class="textpoint" transform="translate(0,3)"><text x="347.78" y="422.1" text-anchor="middle" style="font-family: Arial; font-size: 12px; fill: rgb(36, 36, 36); fill-opacity: 1; white-space: pre;">Sep</text></g><g class="textpoint" transform="translate(0,3)"><text x="492.22" y="515.78" text-anchor="middle" style="font-family: Arial; font-size: 12px; fill: rgb(36, 36, 36); fill-opacity: 1; white-space: pre;">Sep</text></g><g class="textpoint" transform="translate(0,3)"><text x="636.67" y="468.94" text-anchor="middle" style="font-family: Arial; font-size: 12px; fill: rgb(36, 36, 36); fill-opacity: 1; white-space: pre;">Sep</text></g><g class="textpoint" transform="translate(0,3)"><text x="781.12" y="422.1" text-anchor="middle" style="font-family: Arial; font-size: 12px; fill: rgb(36, 36, 36); fill-opacity: 1; white-space: pre;">Sep</text></g></g></g><g class="trace scatter trace4cb994" style="stroke-miterlimit: 2; opacity: 1;"><g class="fills"/><g class="errorbars"/><g class="lines"><path class="js-line" d="M58.88,47.38L203.33,234.74L347.78,94.22L492.22,47.38L636.67,141.06L781.12,47.38" style="vector-effect: non-scaling-stroke; fill: none; stroke: rgb(188, 128, 189); stroke-opacity: 1; stroke-width: 8px; opacity: 1;"/></g><g class="points"><path class="point" transform="translate(58.88,47.38)" d="M13.5,0A13.5,13.5 0 1,1 0,-13.5A13.5,13.5 0 0,1 13.5,0Z" style="opacity: 1; stroke-width: 0px; fill: rgb(188, 128, 189); fill-opacity: 1;"/><path class="point" transform="translate(203.33,234.74)" d="M13.5,0A13.5,13.5 0 1,1 0,-13.5A13.5,13.5 0 0,1 13.5,0Z" style="opacity: 1; stroke-width: 0px; fill: rgb(188, 128, 189); fill-opacity: 1;"/><path class="point" transform="translate(347.78,94.22)" d="M13.5,0A13.5,13.5 0 1,1 0,-13.5A13.5,13.5 0 0,1 13.5,0Z" style="opacity: 1; stroke-width: 0px; fill: rgb(188, 128, 189); fill-opacity: 1;"/><path class="point" transform="translate(492.22,47.38)" d="M13.5,0A13.5,13.5 0 1,1 0,-13.5A13.5,13.5 0 0,1 13.5,0Z" style="opacity: 1; stroke-width: 0px; fill: rgb(188, 128, 189); fill-opacity: 1;"/><path class="point" transform="translate(636.67,141.06)" d="M13.5,0A13.5,13.5 0 1,1 0,-13.5A13.5,13.5 0 0,1 13.5,0Z" style="opacity: 1; stroke-width: 0px; fill: rgb(188, 128, 189); fill-opacity: 1;"/><path class="point" transform="translate(781.12,47.38)" d="M13.5,0A13.5,13.5 0 1,1 0,-13.5A13.5,13.5 0 0,1 13.5,0Z" style="opacity: 1; stroke-width: 0px; fill: rgb(188, 128, 189); fill-opacity: 1;"/></g><g class="text"><g class="textpoint" transform="translate(0,3)"><text x="58.88" y="47.38" text-anchor="middle" style="font-family: Arial; font-size: 12px; fill: rgb(36, 36, 36); fill-opacity: 1; white-space: pre;">Oct</text></g><g class="textpoint" transform="translate(0,3)"><text x="203.33" y="234.74" text-anchor="middle" style="font-family: Arial; font-size: 12px; fill: rgb(36, 36, 36); fill-opacity: 1; white-space: pre;">Oct</text></g><g class="textpoint" transform="translate(0,3)"><text x="347.78" y="94.22" text-anchor="middle" style="font-family: Arial; font-size: 12px; fill: rgb(36, 36, 36); fill-opacity: 1; white-space: pre;">Oct</text></g><g class="textpoint" transform="translate(0,3)"><text x="492.22" y="47.38" text-anchor="middle" style="font-family: Arial; font-size: 12px; fill: rgb(36, 36, 36); fill-opacity: 1; white-space: pre;">Oct</text></g><g class="textpoint" transform="translate(0,3)"><text x="636.67" y="141.06" text-anchor="middle" style="font-family: Arial; font-size: 12px; fill: rgb(36, 36, 36); fill-opacity: 1; white-space: pre;">Oct</text></g><g class="textpoint" transform="translate(0,3)"><text x="781.12" y="47.38" text-anchor="middle" style="font-family: Arial; font-size: 12px; fill: rgb(36, 36, 36); fill-opacity: 1; white-space: pre;">Oct</text></g></g></g><g class="trace scatter tracead7bd7" style="stroke-miterlimit: 2; opacity: 1;"><g class="fills"/><g class="errorbars"/><g class="lines"><path class="js-line" d="M58.88,515.78L203.33,468.94L347.78,468.94L492.22,281.58L636.67,328.42L781.12,281.58" style="vector-effect: non-scaling-stroke; fill: none; stroke: rgb(204, 235, 197); stroke-opacity: 1; stroke-width: 8px; opacity: 1;"/></g><g class="points"><path class="point" transform="translate(58.88,515.78)" d="M13.5,0A13.5,13.5 0 1,1 0,-13.5A13.5,13.5 0 0,1 13.5,0Z" style="opacity: 1; stroke-width: 0px; fill: rgb(204, 235, 197); fill-opacity: 1;"/><path class="point" transform="translate(203.33,468.94)" d="M13.5,0A13.5,13.5 0 1,1 0,-13.5A13.5,13.5 0 0,1 13.5,0Z" style="opacity: 1; stroke-width: 0px; fill: rgb(204, 235, 197); fill-opacity: 1;"/><path class="point" transform="translate(347.78,468.94)" d="M13.5,0A13.5,13.5 0 1,1 0,-13.5A13.5,13.5 0 0,1 13.5,0Z" style="opacity: 1; stroke-width: 0px; fill: rgb(204, 235, 197); fill-opacity: 1;"/><path class="point" transform="translate(492.22,281.58)" d="M13.5,0A13.5,13.5 0 1,1 0,-13.5A13.5,13.5 0 0,1 13.5,0Z" style="opacity: 1; stroke-width: 0px; fill: rgb(204, 235, 197); fill-opacity: 1;"/><path class="point" transform="translate(636.67,328.42)" d="M13.5,0A13.5,13.5 0 1,1 0,-13.5A13.5,13.5 0 0,1 13.5,0Z" style="opacity: 1; stroke-width: 0px; fill: rgb(204, 235, 197); fill-opacity: 1;"/><path class="point" transform="translate(781.12,281.58)" d="M13.5,0A13.5,13.5 0 1,1 0,-13.5A13.5,13.5 0 0,1 13.5,0Z" style="opacity: 1; stroke-width: 0px; fill: rgb(204, 235, 197); fill-opacity: 1;"/></g><g class="text"><g class="textpoint" transform="translate(0,3)"><text x="58.88" y="515.78" text-anchor="middle" style="font-family: Arial; font-size: 12px; fill: rgb(36, 36, 36); fill-opacity: 1; white-space: pre;">Nov</text></g><g class="textpoint" transform="translate(0,3)"><text x="203.33" y="468.94" text-anchor="middle" style="font-family: Arial; font-size: 12px; fill: rgb(36, 36, 36); fill-opacity: 1; white-space: pre;">Nov</text></g><g class="textpoint" transform="translate(0,3)"><text x="347.78" y="468.94" text-anchor="middle" style="font-family: Arial; font-size: 12px; fill: rgb(36, 36, 36); fill-opacity: 1; white-space: pre;">Nov</text></g><g class="textpoint" transform="translate(0,3)"><text x="492.22" y="281.58" text-anchor="middle" style="font-family: Arial; font-size: 12px; fill: rgb(36, 36, 36); fill-opacity: 1; white-space: pre;">Nov</text></g><g class="textpoint" transform="translate(0,3)"><text x="636.67" y="328.42" text-anchor="middle" style="font-family: Arial; font-size: 12px; fill: rgb(36, 36, 36); fill-opacity: 1; white-space: pre;">Nov</text></g><g class="textpoint" transform="translate(0,3)"><text x="781.12" y="281.58" text-anchor="middle" style="font-family: Arial; font-size: 12px; fill: rgb(36, 36, 36); fill-opacity: 1; white-space: pre;">Nov</text></g></g></g><g class="trace scatter trace1a043d" style="stroke-miterlimit: 2; opacity: 1;"><g class="fills"/><g class="errorbars"/><g class="lines"><path class="js-line" d="M58.88,281.58L203.33,562.63L347.78,562.63L492.22,468.94L636.67,234.74L781.12,94.22" style="vector-effect: non-scaling-stroke; fill: none; stroke: rgb(255, 237, 111); stroke-opacity: 1; stroke-width: 8px; opacity: 1;"/></g><g class="points"><path class="point" transform="translate(58.88,281.58)" d="M13.5,0A13.5,13.5 0 1,1 0,-13.5A13.5,13.5 0 0,1 13.5,0Z" style="opacity: 1; stroke-width: 0px; fill: rgb(255, 237, 111); fill-opacity: 1;"/><path class="point" transform="translate(203.33,562.63)" d="M13.5,0A13.5,13.5 0 1,1 0,-13.5A13.5,13.5 0 0,1 13.5,0Z" style="opacity: 1; stroke-width: 0px; fill: rgb(255, 237, 111); fill-opacity: 1;"/><path class="point" transform="translate(347.78,562.63)" d="M13.5,0A13.5,13.5 0 1,1 0,-13.5A13.5,13.5 0 0,1 13.5,0Z" style="opacity: 1; stroke-width: 0px; fill: rgb(255, 237, 111); fill-opacity: 1;"/><path class="point" transform="translate(492.22,468.94)" d="M13.5,0A13.5,13.5 0 1,1 0,-13.5A13.5,13.5 0 0,1 13.5,0Z" style="opacity: 1; stroke-width: 0px; fill: rgb(255, 237, 111); fill-opacity: 1;"/><path class="point" transform="translate(636.67,234.74)" d="M13.5,0A13.5,13.5 0 1,1 0,-13.5A13.5,13.5 0 0,1 13.5,0Z" style="opacity: 1; stroke-width: 0px; fill: rgb(255, 237, 111); fill-opacity: 1;"/><path class="point" transform="translate(781.12,94.22)" d="M13.5,0A13.5,13.5 0 1,1 0,-13.5A13.5,13.5 0 0,1 13.5,0Z" style="opacity: 1; stroke-width: 0px; fill: rgb(255, 237, 111); fill-opacity: 1;"/></g><g class="text"><g class="textpoint" transform="translate(0,3)"><text x="58.88" y="281.58" text-anchor="middle" style="font-family: Arial; font-size: 12px; fill: rgb(36, 36, 36); fill-opacity: 1; white-space: pre;">Dec</text></g><g class="textpoint" transform="translate(0,3)"><text x="203.33" y="562.63" text-anchor="middle" style="font-family: Arial; font-size: 12px; fill: rgb(36, 36, 36); fill-opacity: 1; white-space: pre;">Dec</text></g><g class="textpoint" transform="translate(0,3)"><text x="347.78" y="562.63" text-anchor="middle" style="font-family: Arial; font-size: 12px; fill: rgb(36, 36, 36); fill-opacity: 1; white-space: pre;">Dec</text></g><g class="textpoint" transform="translate(0,3)"><text x="492.22" y="468.94" text-anchor="middle" style="font-family: Arial; font-size: 12px; fill: rgb(36, 36, 36); fill-opacity: 1; white-space: pre;">Dec</text></g><g class="textpoint" transform="translate(0,3)"><text x="636.67" y="234.74" text-anchor="middle" style="font-family: Arial; font-size: 12px; fill: rgb(36, 36, 36); fill-opacity: 1; white-space: pre;">Dec</text></g><g class="textpoint" transform="translate(0,3)"><text x="781.12" y="94.22" text-anchor="middle" style="font-family: Arial; font-size: 12px; fill: rgb(36, 36, 36); fill-opacity: 1; white-space: pre;">Dec</text></g></g></g></g></g><g class="overplot"/><path class="xlines-above crisp" d="M80,670.5H920" style="fill: none; stroke-width: 1px; stroke: rgb(36, 36, 36); stroke-opacity: 1;"/><path class="ylines-above crisp" d="M0,0" style="fill: none;"/><g class="overlines-above"/><g class="xaxislayer-above"><path class="xtick ticks crisp" d="M0,671v5" transform="translate(138.88,0)" style="stroke: rgb(68, 68, 68); stroke-opacity: 1; stroke-width: 1px;"/><path class="xtick ticks crisp" d="M0,671v5" transform="translate(283.33000000000004,0)" style="stroke: rgb(68, 68, 68); stroke-opacity: 1; stroke-width: 1px;"/><path class="xtick ticks crisp" d="M0,671v5" transform="translate(427.78,0)" style="stroke: rgb(68, 68, 68); stroke-opacity: 1; stroke-width: 1px;"/><path class="xtick ticks crisp" d="M0,671v5" transform="translate(572.22,0)" style="stroke: rgb(68, 68, 68); stroke-opacity: 1; stroke-width: 1px;"/><path class="xtick ticks crisp" d="M0,671v5" transform="translate(716.67,0)" style="stroke: rgb(68, 68, 68); stroke-opacity: 1; stroke-width: 1px;"/><path class="xtick ticks crisp" d="M0,671v5" transform="translate(861.12,0)" style="stroke: rgb(68, 68, 68); stroke-opacity: 1; stroke-width: 1px;"/><g class="xtick"><text text-anchor="middle" x="0" y="690.4" transform="translate(138.88,0)" style="font-family: Arial; font-size: 12px; fill: rgb(36, 36, 36); fill-opacity: 1; white-space: pre;">1960</text></g><g class="xtick"><text text-anchor="middle" x="0" y="690.4" transform="translate(283.33000000000004,0)" style="font-family: Arial; font-size: 12px; fill: rgb(36, 36, 36); fill-opacity: 1; white-space: pre;">1970</text></g><g class="xtick"><text text-anchor="middle" x="0" y="690.4" transform="translate(427.78,0)" style="font-family: Arial; font-size: 12px; fill: rgb(36, 36, 36); fill-opacity: 1; white-space: pre;">1980</text></g><g class="xtick"><text text-anchor="middle" x="0" y="690.4" transform="translate(572.22,0)" style="font-family: Arial; font-size: 12px; fill: rgb(36, 36, 36); fill-opacity: 1; white-space: pre;">1990</text></g><g class="xtick"><text text-anchor="middle" x="0" y="690.4" transform="translate(716.67,0)" style="font-family: Arial; font-size: 12px; fill: rgb(36, 36, 36); fill-opacity: 1; white-space: pre;">2000</text></g><g class="xtick"><text text-anchor="middle" x="0" y="690.4" transform="translate(861.12,0)" style="font-family: Arial; font-size: 12px; fill: rgb(36, 36, 36); fill-opacity: 1; white-space: pre;">2010</text></g></g><g class="yaxislayer-above"/><g class="overaxes-above"/></g></g><g class="polarlayer"/><g class="ternarylayer"/><g class="geolayer"/><g class="funnelarealayer"/><g class="pielayer"/><g class="treemaplayer"/><g class="sunburstlayer"/><g class="glimages"/><defs id="topdefs-f43065"><g class="clips"/></defs><g class="layer-above"><g class="imagelayer"/><g class="shapelayer"/></g><g class="infolayer"><g class="g-gtitle"><text class="gtitle" x="500" y="30" text-anchor="middle" dy="0em" style="font-family: Arial; font-size: 17px; fill: rgb(36, 36, 36); opacity: 1; font-weight: normal; white-space: pre;">Which Month Has the Most New Music Releases?</text></g><g class="g-xtitle"><text class="xtitle" x="500" y="718.20625" text-anchor="middle" style="font-family: Arial; font-size: 14px; fill: rgb(36, 36, 36); opacity: 1; font-weight: normal; white-space: pre;">Decade</text></g></g></svg>